<svg width="43" height="43" viewBox="0 0 43 43" fill="none" xmlns="http://www.w3.org/2000/svg">
<g filter="url(#filter0_d_3176_7299)">
<path d="M21.5007 20.6048C20.3127 20.6048 19.1734 20.1329 18.3334 19.2929C17.4934 18.4529 17.0215 17.3136 17.0215 16.1257C17.0215 14.9377 17.4934 13.7984 18.3334 12.9584C19.1734 12.1184 20.3127 11.6465 21.5007 11.6465C22.6886 11.6465 23.8279 12.1184 24.6679 12.9584C25.5079 13.7984 25.9798 14.9377 25.9798 16.1257C25.9798 16.7139 25.864 17.2963 25.6389 17.8398C25.4138 18.3832 25.0838 18.877 24.6679 19.2929C24.252 19.7088 23.7582 20.0388 23.2148 20.2639C22.6713 20.489 22.0889 20.6048 21.5007 20.6048ZM21.5007 3.58398C18.1744 3.58398 14.9844 4.90533 12.6324 7.25735C10.2803 9.60937 8.95898 12.7994 8.95898 16.1257C8.95898 25.5319 21.5007 39.4173 21.5007 39.4173C21.5007 39.4173 34.0423 25.5319 34.0423 16.1257C34.0423 12.7994 32.721 9.60937 30.3689 7.25735C28.0169 4.90533 24.8269 3.58398 21.5007 3.58398Z" fill="#EC0091"/>
</g>
<defs>
<filter id="filter0_d_3176_7299" x="0.958984" y="-0.416016" width="41.084" height="51.834" filterUnits="userSpaceOnUse" color-interpolation-filters="sRGB">
<feFlood flood-opacity="0" result="BackgroundImageFix"/>
<feColorMatrix in="SourceAlpha" type="matrix" values="0 0 0 0 0 0 0 0 0 0 0 0 0 0 0 0 0 0 127 0" result="hardAlpha"/>
<feOffset dy="4"/>
<feGaussianBlur stdDeviation="4"/>
<feComposite in2="hardAlpha" operator="out"/>
<feColorMatrix type="matrix" values="0 0 0 0 0 0 0 0 0 0 0 0 0 0 0 0 0 0 0.16 0"/>
<feBlend mode="normal" in2="BackgroundImageFix" result="effect1_dropShadow_3176_7299"/>
<feBlend mode="normal" in="SourceGraphic" in2="effect1_dropShadow_3176_7299" result="shape"/>
</filter>
</defs>
</svg>
